<svg xmlns="http://www.w3.org/2000/svg" viewBox="0 0 100 100" width="100" height="100">
  <defs>
    <linearGradient id="mlopsGrad" x1="0%" y1="0%" x2="100%" y2="100%">
      <stop offset="0%" style="stop-color:#9B59B6;stop-opacity:1" />
      <stop offset="100%" style="stop-color:#8E44AD;stop-opacity:1" />
    </linearGradient>
  </defs>
  
  <!-- ML Model Icon -->
  <path d="M 20 20 L 50 10 L 80 20 L 80 50 L 50 60 L 20 50 Z" fill="url(#mlopsGrad)" opacity="0.7"/>
  <circle cx="35" cy="30" r="3" fill="#fff"/>
  <circle cx="50" cy="25" r="3" fill="#fff"/>
  <circle cx="65" cy="30" r="3" fill="#fff"/>
  <path d="M 35 30 L 50 25 L 65 30" stroke="#fff" stroke-width="1.5" fill="none"/>
  
  <!-- Deployment Arrow -->
  <path d="M 50 60 L 50 80" stroke="#9B59B6" stroke-width="3" fill="none" marker-end="url(#arrowhead2)"/>
  
  <!-- Production Box -->
  <rect x="35" y="80" width="30" height="15" rx="2" fill="#9B59B6" opacity="0.8"/>
  <line x1="40" y1="85" x2="60" y2="85" stroke="#fff" stroke-width="1"/>
  <line x1="40" y1="90" x2="55" y2="90" stroke="#fff" stroke-width="1"/>
  
  <!-- Monitoring Indicator -->
  <circle cx="75" cy="25" r="6" fill="#27AE60" opacity="0.8"/>
  <circle cx="75" cy="25" r="3" fill="#fff"/>
  
  <defs>
    <marker id="arrowhead2" markerWidth="10" markerHeight="10" refX="5" refY="3" orient="auto">
      <polygon points="0 0, 10 3, 0 6" fill="#9B59B6"/>
    </marker>
  </defs>
</svg>

